<svg width="70" height="69" viewBox="0 0 70 69" fill="none" xmlns="http://www.w3.org/2000/svg">
<g clip-path="url(#clip0_4_76)">
<path d="M47.9062 5.6925C46.4789 5.77336 45.0734 6.11836 43.75 6.77063L36.05 10.4794H14.175L1.74996 7.50375C1.56402 7.44985 1.37262 7.43906 1.18121 7.46063C0.503086 7.54149 -0.0109766 8.09133 -0.0437891 8.76516C-0.0766016 9.4336 0.382774 10.032 1.04996 10.1775L13.65 13.1963L13.825 13.2394H30.3187L18.4187 18.975C18.3695 18.9966 18.3367 19.0397 18.2875 19.0613C16.439 19.8645 15.9523 22.3549 17.325 23.805L17.2812 23.8481C17.3031 23.8697 17.3468 23.8697 17.3687 23.8913C21.5359 28.3924 28.1367 29.8856 33.95 27.6431H33.9937L42.2187 24.495L59.1937 41.2706C60.4789 42.5374 60.4789 44.532 59.1937 45.7988C57.9086 47.0655 55.8851 47.0655 54.6 45.7988C54.0422 45.3567 53.2382 45.3998 52.7297 45.8958C52.2265 46.3971 52.1828 47.1895 52.6312 47.7394C53.9164 49.0062 53.9164 51.0438 52.6312 52.3106C51.3461 53.5774 49.3226 53.5774 48.0375 52.3106L47.0312 51.3188C46.4734 50.8767 45.6695 50.9198 45.1609 51.4158C44.6578 51.9171 44.614 52.7095 45.0625 53.2594C46.3476 54.5262 46.3476 56.5638 45.0625 57.8306C43.7773 59.0974 41.7539 59.0974 40.4687 57.8306L39.5062 56.8388C38.9648 56.2889 38.0734 56.2835 37.5156 56.8172C36.9578 57.3509 36.9523 58.2295 37.4937 58.7794C38.7789 60.0462 38.7789 62.0838 37.4937 63.3506C36.2086 64.6174 34.1851 64.6174 32.9 63.3506L31.15 61.6256L32.2 60.5906C34.2507 58.5691 34.2507 55.2809 32.2 53.2594C31.1773 52.2513 29.8265 51.75 28.4812 51.75C28.4648 51.75 28.4539 51.75 28.4375 51.75C28.4593 50.3916 27.9507 49.0277 26.9062 47.9981C25.8836 46.9901 24.5328 46.4888 23.1875 46.4888C23.1164 46.4888 23.0398 46.4834 22.9687 46.4888C23.0125 45.1034 22.5093 43.7072 21.4375 42.6506C20.4148 41.6426 19.064 41.0981 17.7187 41.0981C17.6476 41.0981 17.5711 41.0927 17.5 41.0981C17.5437 39.7127 17.0406 38.3166 15.9687 37.26C14.9461 36.252 13.5953 35.7506 12.25 35.7506C10.9046 35.7506 9.55387 36.252 8.53121 37.26L7.26246 38.5106L1.61871 37.5619C1.53121 37.5403 1.44371 37.5241 1.35621 37.5188C0.585118 37.4702 -0.0820704 38.0524 -0.131289 38.8125C-0.180507 39.5726 0.410118 40.2302 1.18121 40.2788L5.77496 41.0981C5.35934 42.7962 5.79137 44.6505 7.13121 45.9712C8.21402 47.0386 9.65231 47.5399 11.0687 47.4806C11.0086 48.8768 11.5171 50.2945 12.6 51.3619C13.6828 52.4292 15.1211 52.9305 16.5375 52.8713C16.4937 54.2566 16.9968 55.6528 18.0687 56.7094C19.1132 57.739 20.4968 58.2403 21.875 58.2188C21.8422 59.5826 22.3343 60.9572 23.3625 61.9706L23.4062 62.0138C24.8664 63.4207 26.9664 63.7927 28.7875 63.1781L30.9312 65.2913C33.2828 67.6092 37.1547 67.6092 39.5062 65.2913C40.6492 64.1646 41.1796 62.6768 41.2125 61.1944C43.2359 61.7227 45.4562 61.3238 47.0312 59.7713C48.1742 58.6446 48.7484 57.1568 48.7812 55.6744C50.7992 56.1973 53.025 55.8038 54.6 54.2513C55.9453 52.9252 56.4539 51.1193 56.2625 49.3781C58.0289 49.5722 59.8609 49.0655 61.2062 47.7394C62.7101 46.257 63.2461 44.1762 62.825 42.2625L63.6562 41.4431L68.8187 40.71C69.5898 40.5914 70.1203 39.8745 70 39.1144C69.8797 38.3543 69.1523 37.8314 68.3812 37.95L62.7812 38.8125L62.3437 38.8556L61.5125 39.675C61.414 39.5618 61.3156 39.4378 61.2062 39.33L43.9687 22.3388C43.9031 22.2741 43.8265 22.2148 43.75 22.1663C43.7336 22.1501 43.7226 22.1393 43.7062 22.1231C43.3398 21.5895 42.6507 21.3792 42.0437 21.6056L32.9437 25.0556C28.1586 26.9208 22.7718 25.7079 19.3812 21.9937L19.3375 21.9506C19.157 21.7727 19.1461 21.6488 19.3812 21.5625H19.4687L19.5125 21.5194L36.7937 13.1963C37.089 13.1531 37.3679 13.0184 37.5812 12.8081L44.975 9.22875H45.0187C47.6 7.95656 50.6132 8.21531 52.9812 9.78938L53.5062 10.3931L53.6375 10.5656L53.8125 10.6519C56.3554 12.3769 59.4179 12.8351 62.3 12.075V12.1181L62.3875 12.075L68.9062 10.7381C69.6664 10.571 70.1476 9.82711 69.9781 9.07781C69.8086 8.32852 69.0539 7.85414 68.2937 8.02125L61.7312 9.40125L61.6875 9.44438H61.6437C59.5547 10.0158 57.4 9.63844 55.5187 8.40938L54.9937 7.80563L54.8625 7.67625L54.6875 7.54688C53.0797 6.43641 51.2422 5.83266 49.35 5.6925C48.8742 5.66016 48.382 5.66555 47.9062 5.6925ZM12.25 38.4244C12.8625 38.4244 13.4859 38.6939 14 39.2006C15.0281 40.2141 15.0281 41.6372 14 42.6506L12.9062 43.6856L12.775 43.815L12.6 44.0306C11.5718 45.0441 10.1281 45.0441 9.09996 44.0306C8.25777 43.2005 8.13199 42.1116 8.66246 41.1844C8.90856 41.0119 9.08902 40.7747 9.18746 40.4944L10.325 39.4163L10.5 39.2006C11.014 38.6939 11.6375 38.4244 12.25 38.4244ZM17.7187 43.815C18.3312 43.815 18.9547 44.0845 19.4687 44.5913C20.4968 45.6047 20.4968 46.9847 19.4687 47.9981L18.0687 49.3781C17.0406 50.3916 15.5968 50.3916 14.5687 49.3781C13.5406 48.3647 13.5406 46.9847 14.5687 45.9712L15.9687 44.5913C16.4828 44.0845 17.1062 43.815 17.7187 43.815ZM23.1875 49.2056C23.8 49.2056 24.3797 49.4752 24.8937 49.9819C25.7414 50.8174 25.8836 51.9063 25.3312 52.8281C25.1398 52.9683 24.9375 53.0869 24.7625 53.2594L23.3625 54.6394V54.6825H23.3187C23.1656 54.8496 23.0507 55.0221 22.925 55.2C21.9898 55.7445 20.8851 55.6043 20.0375 54.7688C19.0093 53.7553 19.0093 52.3753 20.0375 51.3619L21.0875 50.2838L21.35 50.0681L21.4375 49.9819C21.9515 49.4752 22.575 49.2056 23.1875 49.2056ZM28.4812 54.4669C29.0937 54.4669 29.7171 54.6933 30.2312 55.2C31.2593 56.2134 31.2593 57.6366 30.2312 58.65L28.8312 60.03C28.7109 60.1486 28.6125 60.2834 28.4812 60.375C28.4703 60.3804 28.4484 60.3696 28.4375 60.375C27.4586 61.0434 26.2336 60.9195 25.3312 60.03C24.6695 59.3777 24.5164 58.0732 24.9812 57.0975C25.1562 56.9627 25.3476 56.8657 25.5062 56.7094L26.9062 55.3294C27.0921 55.1461 27.2343 54.9305 27.3875 54.7256C27.7375 54.5531 28.1148 54.4669 28.4812 54.4669Z" fill="black"/>
</g>
<defs>
<clipPath id="clip0_4_76">
<rect width="70" height="69" fill="white"/>
</clipPath>
</defs>
</svg>
